<?xml version="1.0" standalone="no"?><!DOCTYPE svg PUBLIC "-//W3C//DTD SVG 1.1//EN" "http://www.w3.org/Graphics/SVG/1.1/DTD/svg11.dtd"><svg t="1540854674173" class="icon" style="" viewBox="0 0 1024 1024" version="1.1" xmlns="http://www.w3.org/2000/svg" p-id="3903" xmlns:xlink="http://www.w3.org/1999/xlink" width="200" height="200"><defs><style type="text/css"></style></defs><path d="M409.6 360.228571h21.942857v58.514286h-21.942857zM409.6 440.685714h21.942857v58.514286h-21.942857zM409.6 601.6h21.942857v58.514286h-21.942857zM409.6 521.142857h21.942857v58.514286h-21.942857zM607.085714 433.371429c-3.657143 0-3.657143-1.828571-5.485714-3.657143-3.657143 0-3.657143-1.828571-5.485714 0-1.828571 0-25.6 38.4-27.428572 40.228571-1.828571 3.657143-3.657143 5.485714-3.657143 7.314286-1.828571 1.828571-1.828571 1.828571-3.657142 1.828571l-3.657143-3.657143c0-1.828571-1.828571-3.657143-3.657143-7.314285s-21.942857-32.914286-23.771429-34.742857c-5.485714-5.485714-7.314286-9.142857-9.142857-5.485715-3.657143 1.828571-3.657143 3.657143-7.314286 3.657143-3.657143 1.828571-3.657143 3.657143-5.485714 3.657143-3.657143 1.828571-3.657143 5.485714-1.828571 9.142857 5.485714 7.314286 10.971429 14.628571 14.628571 21.942857 3.657143 5.485714 9.142857 14.628571 12.8 18.285715 3.657143 5.485714 3.657143 7.314286 3.657143 9.142857 0 1.828571-3.657143 3.657143-3.657143 3.657143h-34.742857v27.428571h45.714286v9.142857h-45.714286v21.942857h45.714286v34.742857H566.857143v-36.571428h45.714286v-21.942857H566.857143v-9.142857h45.714286v-25.6H585.142857s-3.657143-1.828571-1.828571-3.657143c0-1.828571 1.828571-3.657143 3.657143-9.142857 3.657143-3.657143 18.285714-27.428571 21.942857-32.914286 3.657143-3.657143 3.657143-7.314286 5.485714-9.142857 1.828571-3.657143 3.657143-5.485714 1.828571-9.142857-1.828571 5.485714-7.314286 1.828571-9.142857 0z" fill="#D3AB84" p-id="3904"></path><path d="M512 102.4C285.257143 102.4 100.571429 287.085714 100.571429 513.828571S285.257143 925.257143 512 925.257143s411.428571-184.685714 411.428571-411.428572S738.742857 102.4 512 102.4z m230.4 358.4c-14.628571 3.657143-45.714286 12.8-45.714286 53.028571 0 43.885714 31.085714 51.2 45.714286 53.028572v76.8c0 21.942857-14.628571 36.571429-34.742857 36.571428H318.171429c-20.114286 0-34.742857-14.628571-34.742858-36.571428V566.857143c14.628571-3.657143 45.714286-12.8 45.714286-53.028572s-31.085714-51.2-45.714286-53.028571V384c0-21.942857 14.628571-36.571429 34.742858-36.571429h389.485714c20.114286 0 34.742857 14.628571 34.742857 36.571429v76.8z" fill="#D3AB84" p-id="3905"></path></svg>